<?xml version="1.0" encoding="utf-8"?>
<!-- Generator: Adobe Illustrator 18.1.0, SVG Export Plug-In . SVG Version: 6.00 Build 0)  -->
<!DOCTYPE svg PUBLIC "-//W3C//DTD SVG 1.1//EN" "http://www.w3.org/Graphics/SVG/1.1/DTD/svg11.dtd">
<svg version="1.1" id="Layer_1" xmlns="http://www.w3.org/2000/svg" xmlns:xlink="http://www.w3.org/1999/xlink" x="0px" y="0px"
	 viewBox="0 0 230.6 230.6" enable-background="new 0 0 230.6 230.6" xml:space="preserve">
<g>
	<g>
		<path fill="#FFFFFF" d="M115.3,230.6L0,115.3L115.3,0l115.3,115.3L115.3,230.6z M17,115.3l98.3,98.3l98.3-98.3L115.3,17L17,115.3z
			"/>
	</g>
	<g>
		<path fill="#FFFFFF" d="M92.2,133.2c6.7,0,12.1-2.6,16.4-7.9l8.7,9c-6.9,7.8-15,11.7-24.4,11.7c-9.4,0-17.1-3-23.1-8.9
			c-6.1-5.9-9.1-13.4-9.1-22.4c0-9,3.1-16.5,9.3-22.6c6.2-6,13.7-9,22.7-9c10,0,18.3,3.8,25.1,11.4l-8.4,9.6c-4.3-5.3-9.6-8-16-8
			c-5.1,0-9.5,1.7-13.1,5c-3.6,3.3-5.4,7.8-5.4,13.5c0,5.7,1.7,10.2,5.1,13.6C83.2,131.5,87.3,133.2,92.2,133.2z"/>
		<path fill="#FFFFFF" d="M169.7,84.4v11.9h-28.2v13.1h26.8v11.9h-26.8v23.8H128V84.4H169.7z"/>
	</g>
</g>
</svg>
